<mxfile host="Electron" agent="Mozilla/5.0 (Macintosh; Intel Mac OS X 10_15_7) AppleWebKit/537.36 (KHTML, like Gecko) draw.io/24.7.17 Chrome/128.0.6613.36 Electron/32.0.1 Safari/537.36" version="24.7.17">
  <diagram name="Page-1" id="bfe91b75-5d2c-26a0-9c1d-138518896778">
    <mxGraphModel dx="107" dy="874" grid="1" gridSize="10" guides="1" tooltips="1" connect="1" arrows="1" fold="1" page="1" pageScale="1" pageWidth="1100" pageHeight="850" background="none" math="0" shadow="0">
      <root>
        <mxCell id="0" />
        <mxCell id="1" parent="0" />
        <mxCell id="Gx_3XyPIexigZt879AEv-3" value="Coachlight LAN" style="rounded=0;whiteSpace=wrap;html=1;labelPosition=center;verticalLabelPosition=top;align=center;verticalAlign=bottom;" vertex="1" parent="1">
          <mxGeometry x="1470" y="150" width="930" height="840" as="geometry" />
        </mxCell>
        <mxCell id="Gx_3XyPIexigZt879AEv-5" style="edgeStyle=orthogonalEdgeStyle;rounded=0;orthogonalLoop=1;jettySize=auto;html=1;entryX=0;entryY=0.5;entryDx=0;entryDy=0;" edge="1" parent="1" source="Gx_3XyPIexigZt879AEv-1" target="Gx_3XyPIexigZt879AEv-4">
          <mxGeometry relative="1" as="geometry" />
        </mxCell>
        <mxCell id="Gx_3XyPIexigZt879AEv-1" value="&lt;span style=&quot;background-color: rgb(27, 29, 30);&quot;&gt;TP-Link ER8411 VPN Router&lt;/span&gt;" style="image;points=[];aspect=fixed;html=1;align=center;shadow=0;dashed=0;image=img/lib/allied_telesis/security/Router_VPN.svg;fontColor=#FFFFFF;" vertex="1" parent="1">
          <mxGeometry x="1400" y="337.5" width="155" height="110" as="geometry" />
        </mxCell>
        <mxCell id="Gx_3XyPIexigZt879AEv-8" style="edgeStyle=orthogonalEdgeStyle;rounded=0;orthogonalLoop=1;jettySize=auto;html=1;" edge="1" parent="1" source="Gx_3XyPIexigZt879AEv-4" target="Gx_3XyPIexigZt879AEv-7">
          <mxGeometry relative="1" as="geometry" />
        </mxCell>
        <mxCell id="Gx_3XyPIexigZt879AEv-12" style="edgeStyle=orthogonalEdgeStyle;rounded=0;orthogonalLoop=1;jettySize=auto;html=1;exitX=0.25;exitY=0;exitDx=0;exitDy=0;" edge="1" parent="1" source="Gx_3XyPIexigZt879AEv-4" target="Gx_3XyPIexigZt879AEv-11">
          <mxGeometry relative="1" as="geometry" />
        </mxCell>
        <mxCell id="Gx_3XyPIexigZt879AEv-17" style="edgeStyle=orthogonalEdgeStyle;rounded=0;orthogonalLoop=1;jettySize=auto;html=1;exitX=1;exitY=0.5;exitDx=0;exitDy=0;entryX=0;entryY=0.5;entryDx=0;entryDy=0;" edge="1" parent="1" source="Gx_3XyPIexigZt879AEv-4" target="Gx_3XyPIexigZt879AEv-15">
          <mxGeometry relative="1" as="geometry" />
        </mxCell>
        <mxCell id="Gx_3XyPIexigZt879AEv-18" style="edgeStyle=orthogonalEdgeStyle;rounded=0;orthogonalLoop=1;jettySize=auto;html=1;exitX=1;exitY=0.75;exitDx=0;exitDy=0;entryX=0;entryY=0.5;entryDx=0;entryDy=0;" edge="1" parent="1" source="Gx_3XyPIexigZt879AEv-4" target="Gx_3XyPIexigZt879AEv-16">
          <mxGeometry relative="1" as="geometry" />
        </mxCell>
        <mxCell id="Gx_3XyPIexigZt879AEv-4" value="TP-Link TL-SG2428P Managed Switch" style="image;html=1;image=img/lib/clip_art/networking/Switch_128x128.png" vertex="1" parent="1">
          <mxGeometry x="1620" y="328.75" width="127.5" height="127.5" as="geometry" />
        </mxCell>
        <mxCell id="Gx_3XyPIexigZt879AEv-7" value="Upstairs AP" style="image;points=[];aspect=fixed;html=1;align=center;shadow=0;dashed=0;image=img/lib/allied_telesis/wireless/Access_Point_Indoor.svg;" vertex="1" parent="1">
          <mxGeometry x="1665.45" y="170" width="36.6" height="54.6" as="geometry" />
        </mxCell>
        <mxCell id="Gx_3XyPIexigZt879AEv-9" value="Downstairs AP" style="image;points=[];aspect=fixed;html=1;align=center;shadow=0;dashed=0;image=img/lib/allied_telesis/wireless/Access_Point_Indoor.svg;" vertex="1" parent="1">
          <mxGeometry x="1665.45" y="550" width="36.6" height="54.6" as="geometry" />
        </mxCell>
        <mxCell id="Gx_3XyPIexigZt879AEv-10" style="edgeStyle=orthogonalEdgeStyle;rounded=0;orthogonalLoop=1;jettySize=auto;html=1;exitX=0.5;exitY=1;exitDx=0;exitDy=0;entryX=0.496;entryY=0.024;entryDx=0;entryDy=0;entryPerimeter=0;" edge="1" parent="1" source="Gx_3XyPIexigZt879AEv-4" target="Gx_3XyPIexigZt879AEv-9">
          <mxGeometry relative="1" as="geometry" />
        </mxCell>
        <mxCell id="Gx_3XyPIexigZt879AEv-11" value="Garage AP" style="image;points=[];aspect=fixed;html=1;align=center;shadow=0;dashed=0;image=img/lib/allied_telesis/wireless/Access_Point_Indoor.svg;" vertex="1" parent="1">
          <mxGeometry x="1540" y="170" width="36.6" height="54.6" as="geometry" />
        </mxCell>
        <mxCell id="Gx_3XyPIexigZt879AEv-13" value="Synology 1813+ NAS" style="fontColor=#FFFFFF;verticalAlign=top;verticalLabelPosition=bottom;labelPosition=center;align=center;html=1;outlineConnect=0;fillColor=#CCCCCC;strokeColor=#6881B3;gradientColor=none;gradientDirection=north;strokeWidth=2;shape=mxgraph.networks.nas_filer;" vertex="1" parent="1">
          <mxGeometry x="1750" y="177.1" width="144" height="50.4" as="geometry" />
        </mxCell>
        <mxCell id="Gx_3XyPIexigZt879AEv-14" style="edgeStyle=orthogonalEdgeStyle;rounded=0;orthogonalLoop=1;jettySize=auto;html=1;exitX=1;exitY=0.25;exitDx=0;exitDy=0;entryX=0.5;entryY=1;entryDx=0;entryDy=0;entryPerimeter=0;" edge="1" parent="1" source="Gx_3XyPIexigZt879AEv-4" target="Gx_3XyPIexigZt879AEv-13">
          <mxGeometry relative="1" as="geometry" />
        </mxCell>
        <mxCell id="Gx_3XyPIexigZt879AEv-15" value="ProxMox Node 1- Mac Mini" style="rounded=1;whiteSpace=wrap;html=1;labelPosition=center;verticalLabelPosition=bottom;align=center;verticalAlign=top;fillColor=#6B5640;strokeColor=#36393d;" vertex="1" parent="1">
          <mxGeometry x="1930" y="177.1" width="440" height="372.9" as="geometry" />
        </mxCell>
        <mxCell id="Gx_3XyPIexigZt879AEv-16" value="ProxMox Node 2- Mac Mini" style="rounded=1;whiteSpace=wrap;html=1;labelPosition=center;verticalLabelPosition=bottom;align=center;verticalAlign=top;fillColor=#6B5640;strokeColor=#2D7600;fontColor=#ffffff;" vertex="1" parent="1">
          <mxGeometry x="1930" y="580" width="440" height="372.9" as="geometry" />
        </mxCell>
        <mxCell id="Gx_3XyPIexigZt879AEv-19" value="HAOS" style="verticalLabelPosition=bottom;html=1;verticalAlign=top;align=center;strokeColor=none;fillColor=#00BEF2;shape=mxgraph.azure.virtual_machine;" vertex="1" parent="1">
          <mxGeometry x="1970" y="207.5" width="160" height="130" as="geometry" />
        </mxCell>
        <mxCell id="Gx_3XyPIexigZt879AEv-21" value="Debian Docker Host VM" style="rounded=1;whiteSpace=wrap;html=1;fillColor=#1ba1e2;fontColor=#ffffff;strokeColor=#006EAF;labelPosition=center;verticalLabelPosition=bottom;align=center;verticalAlign=top;" vertex="1" parent="1">
          <mxGeometry x="1950" y="604.6" width="400" height="325.4" as="geometry" />
        </mxCell>
        <mxCell id="Gx_3XyPIexigZt879AEv-22" value="Heimdall" style="image;sketch=0;aspect=fixed;html=1;points=[];align=center;fontSize=12;image=img/lib/mscae/Docker.svg;" vertex="1" parent="1">
          <mxGeometry x="1980" y="630" width="50" height="41" as="geometry" />
        </mxCell>
        <mxCell id="Gx_3XyPIexigZt879AEv-23" value="Omada SDN Controller" style="image;sketch=0;aspect=fixed;html=1;points=[];align=center;fontSize=12;image=img/lib/mscae/Docker.svg;" vertex="1" parent="1">
          <mxGeometry x="2080" y="630" width="50" height="41" as="geometry" />
        </mxCell>
        <mxCell id="Gx_3XyPIexigZt879AEv-24" value="DuckDNS" style="image;sketch=0;aspect=fixed;html=1;points=[];align=center;fontSize=12;image=img/lib/mscae/Docker.svg;" vertex="1" parent="1">
          <mxGeometry x="2180" y="630" width="50" height="41" as="geometry" />
        </mxCell>
        <mxCell id="Gx_3XyPIexigZt879AEv-25" value="Pi Hole" style="image;sketch=0;aspect=fixed;html=1;points=[];align=center;fontSize=12;image=img/lib/mscae/Docker.svg;" vertex="1" parent="1">
          <mxGeometry x="1980" y="720" width="50" height="41" as="geometry" />
        </mxCell>
        <mxCell id="Gx_3XyPIexigZt879AEv-37" style="edgeStyle=orthogonalEdgeStyle;rounded=0;orthogonalLoop=1;jettySize=auto;html=1;entryX=0;entryY=0.5;entryDx=0;entryDy=0;startArrow=classic;startFill=1;dashed=1;" edge="1" parent="1" source="Gx_3XyPIexigZt879AEv-26" target="Gx_3XyPIexigZt879AEv-34">
          <mxGeometry relative="1" as="geometry" />
        </mxCell>
        <mxCell id="Gx_3XyPIexigZt879AEv-26" value="NGINX" style="image;sketch=0;aspect=fixed;html=1;points=[];align=center;fontSize=12;image=img/lib/mscae/Docker.svg;" vertex="1" parent="1">
          <mxGeometry x="1980" y="820" width="50" height="41" as="geometry" />
        </mxCell>
        <mxCell id="Gx_3XyPIexigZt879AEv-27" value="Let&#39;s Encrypt CertBot" style="image;sketch=0;aspect=fixed;html=1;points=[];align=center;fontSize=12;image=img/lib/mscae/Docker.svg;" vertex="1" parent="1">
          <mxGeometry x="2180" y="720" width="50" height="41" as="geometry" />
        </mxCell>
        <mxCell id="Gx_3XyPIexigZt879AEv-28" value="Duck DNS" style="image;sketch=0;aspect=fixed;html=1;points=[];align=center;fontSize=12;image=img/lib/mscae/DNS.svg;" vertex="1" parent="1">
          <mxGeometry x="1320" y="140" width="50" height="50" as="geometry" />
        </mxCell>
        <mxCell id="Gx_3XyPIexigZt879AEv-29" style="edgeStyle=orthogonalEdgeStyle;rounded=0;orthogonalLoop=1;jettySize=auto;html=1;entryX=0.198;entryY=0.008;entryDx=0;entryDy=0;entryPerimeter=0;" edge="1" parent="1" source="Gx_3XyPIexigZt879AEv-28" target="Gx_3XyPIexigZt879AEv-1">
          <mxGeometry relative="1" as="geometry">
            <mxPoint x="1243.753" y="360.25" as="targetPoint" />
          </mxGeometry>
        </mxCell>
        <mxCell id="Gx_3XyPIexigZt879AEv-38" value="vpn.srfaudio.duckdns.org" style="edgeLabel;html=1;align=center;verticalAlign=middle;resizable=0;points=[];" vertex="1" connectable="0" parent="Gx_3XyPIexigZt879AEv-29">
          <mxGeometry x="0.076" y="-1" relative="1" as="geometry">
            <mxPoint as="offset" />
          </mxGeometry>
        </mxCell>
        <mxCell id="Gx_3XyPIexigZt879AEv-30" value="(Optional)&amp;nbsp;&lt;div&gt;Me, when away from home&lt;/div&gt;" style="image;html=1;image=img/lib/clip_art/computers/Laptop_128x128.png" vertex="1" parent="1">
          <mxGeometry x="1150" y="352.5" width="80" height="80" as="geometry" />
        </mxCell>
        <mxCell id="Gx_3XyPIexigZt879AEv-31" style="edgeStyle=orthogonalEdgeStyle;rounded=0;orthogonalLoop=1;jettySize=auto;html=1;entryX=0.008;entryY=0.51;entryDx=0;entryDy=0;entryPerimeter=0;fillColor=#60a917;strokeColor=#2D7600;" edge="1" parent="1" source="Gx_3XyPIexigZt879AEv-30" target="Gx_3XyPIexigZt879AEv-1">
          <mxGeometry relative="1" as="geometry" />
        </mxCell>
        <mxCell id="Gx_3XyPIexigZt879AEv-32" value="WireGuard" style="edgeLabel;html=1;align=center;verticalAlign=middle;resizable=0;points=[];" vertex="1" connectable="0" parent="Gx_3XyPIexigZt879AEv-31">
          <mxGeometry x="-0.0372" y="-1" relative="1" as="geometry">
            <mxPoint x="-1" as="offset" />
          </mxGeometry>
        </mxCell>
        <mxCell id="Gx_3XyPIexigZt879AEv-33" value="NGINX.conf" style="swimlane;fontStyle=0;childLayout=stackLayout;horizontal=1;startSize=30;horizontalStack=0;resizeParent=1;resizeParentMax=0;resizeLast=0;collapsible=1;marginBottom=0;whiteSpace=wrap;html=1;" vertex="1" parent="1">
          <mxGeometry x="2085" y="800" width="240" height="120" as="geometry" />
        </mxCell>
        <mxCell id="Gx_3XyPIexigZt879AEv-34" value="heimdall.srfaudio.duckdns.org" style="text;strokeColor=none;fillColor=none;align=left;verticalAlign=middle;spacingLeft=4;spacingRight=4;overflow=hidden;points=[[0,0.5],[1,0.5]];portConstraint=eastwest;rotatable=0;whiteSpace=wrap;html=1;" vertex="1" parent="Gx_3XyPIexigZt879AEv-33">
          <mxGeometry y="30" width="240" height="30" as="geometry" />
        </mxCell>
        <mxCell id="Gx_3XyPIexigZt879AEv-35" value="omada.srfaudio.duckdns.org" style="text;strokeColor=none;fillColor=none;align=left;verticalAlign=middle;spacingLeft=4;spacingRight=4;overflow=hidden;points=[[0,0.5],[1,0.5]];portConstraint=eastwest;rotatable=0;whiteSpace=wrap;html=1;" vertex="1" parent="Gx_3XyPIexigZt879AEv-33">
          <mxGeometry y="60" width="240" height="30" as="geometry" />
        </mxCell>
        <mxCell id="Gx_3XyPIexigZt879AEv-36" value="pihole.srfaudio.duckdns.org" style="text;strokeColor=none;fillColor=none;align=left;verticalAlign=middle;spacingLeft=4;spacingRight=4;overflow=hidden;points=[[0,0.5],[1,0.5]];portConstraint=eastwest;rotatable=0;whiteSpace=wrap;html=1;" vertex="1" parent="Gx_3XyPIexigZt879AEv-33">
          <mxGeometry y="90" width="240" height="30" as="geometry" />
        </mxCell>
      </root>
    </mxGraphModel>
  </diagram>
</mxfile>
